<?xml version="1.0" encoding="utf-8"?>
<!-- Generator: Adobe Illustrator 23.0.6, SVG Export Plug-In . SVG Version: 6.00 Build 0)  -->
<svg version="1.1" id="Cap" xmlns="http://www.w3.org/2000/svg" xmlns:xlink="http://www.w3.org/1999/xlink" x="0px" y="0px"
	 viewBox="0 0 200 200" style="enable-background:new 0 0 200 200;" xml:space="preserve">
<style type="text/css">
	.st0{fill:#2D2D2D;}
</style>
<path class="st0" d="M138,98.7V82c0-12.8-10.4-23.2-23.2-23.2c-5.4,0-10.6,1.9-14.7,5.3c-4.2-3.4-9.3-5.3-14.7-5.3
	C72.5,58.7,62,69.1,62,82v16.8c-20.4,4.2-32,11.2-32,19.5c0,15,36.1,23,70,23s70-8.1,70-23C170,110,158.4,102.9,138,98.7z
	 M66.8,109.1c7.9,4.2,23.7,5.4,33.2,5.4c10.2,0,25.6-1.3,33.2-5.4v4.8c-0.3,1.8-10.9,6.6-33.2,6.6c-22.3,0-32.9-4.8-33.2-6.6V109.1z
	 M66.8,82c0-10.2,8.3-18.5,18.5-18.5c4.9,0,9.6,1.9,13.1,5.4l1.7,1.7l1.7-1.7c3.5-3.5,8.1-5.4,13.1-5.4c10.2,0,18.5,8.3,18.5,18.5
	v21.3c-0.3,1.8-10.9,6.6-33.2,6.6c-22.3,0-32.9-4.8-33.2-6.6V82z M100,136.6c-38.5,0-65.3-9.6-65.3-18.3c0-4.5,8.5-10.7,27.3-14.7
	V114c0,9,24.8,11.3,38,11.3c14,0,37.8-2.4,38-11.3v-10.5c18.8,4,27.3,10.2,27.3,14.7C165.3,126.9,138.5,136.6,100,136.6z"/>
</svg>
