<?xml version="1.0" encoding="utf-8"?>
<!-- Generator: Adobe Illustrator 23.0.6, SVG Export Plug-In . SVG Version: 6.00 Build 0)  -->
<svg version="1.1" id="Gloves" xmlns="http://www.w3.org/2000/svg" xmlns:xlink="http://www.w3.org/1999/xlink" x="0px" y="0px"
	 viewBox="0 0 200 200" style="enable-background:new 0 0 200 200;" xml:space="preserve">
<style type="text/css">
	.st0{fill:#2D2D2D;}
</style>
<g>
	<path class="st0" d="M114.4,158.5c-1.6,0-3.2-0.9-4-2.3l-15.9-27.5c-0.6-1.1-0.8-2.3-0.5-3.5c0.3-1.2,1.1-2.2,2.2-2.8l4.2-2.4
		c0.6-0.4,1-0.9,1.2-1.6l5.5-20.5c1.2-4.4,5.9-7.1,10.3-6c2.2,0.6,4,2,5.1,3.9c1.1,2,1.4,4.2,0.9,6.4l-1.4,5.2l21.3-12.3
		c3.1-1.8,7.4-0.6,9.2,2.5c0.4,0.8,0.7,1.6,0.8,2.4c3-1.1,6.5,0.2,8.1,3c0.9,1.5,1.1,3.3,0.7,4.9c1.6,0.5,3,1.6,3.8,3.1
		c0.9,1.5,1.1,3.4,0.7,5.1c-0.5,1.7-1.6,3.2-3.1,4.1l-1,0.6c0.6,0.5,1.2,1.1,1.6,1.9c0.9,1.6,1.1,3.4,0.7,5.1
		c-0.5,1.7-1.6,3.2-3.1,4.1l-45.1,26C116,158.3,115.2,158.5,114.4,158.5z M115.4,96c-1.9,0-3.5,1.3-4,3.1l-5.5,20.5
		c-0.5,1.8-1.6,3.2-3.2,4.2l-4.2,2.4l16,28c0.1,0,0.1,0,0.1,0l45.1-26c0.6-0.3,1-0.8,1.1-1.5c0.2-0.6,0.1-1.3-0.2-1.8
		c-0.6-1.1-2.2-1.5-3.3-0.9l0,0l-2.2-3.7l0,0l6.4-3.7c0.6-0.3,1-0.8,1.1-1.5c0.2-0.6,0.1-1.3-0.2-1.8c-0.6-1.1-2.2-1.5-3.3-0.9
		c0,0,0,0,0,0l-2.2-3.7l0,0l0,0c1.1-0.7,1.5-2.2,0.9-3.3c-0.6-1.1-2.2-1.5-3.3-0.9l-4.4,2.5l-2.2-3.7l0,0c1.1-0.7,1.5-2.1,0.9-3.3
		c-0.6-1.1-2.2-1.5-3.3-0.9l-30.3,17.5l4.1-15.3c0.6-2.2-0.7-4.5-2.9-5.1C116.1,96,115.7,96,115.4,96z"/>
	
		<rect x="132.2" y="107.4" transform="matrix(0.8661 -0.4999 0.4999 0.8661 -35.8567 85.2666)" class="st0" width="18" height="4.3"/>
	<rect x="136.5" y="114.1" transform="matrix(0.866 -0.5 0.5 0.866 -38.2844 89.5759)" class="st0" width="23.1" height="4.3"/>
	<rect x="141.5" y="123.8" transform="matrix(0.8661 -0.5 0.5 0.8661 -42.9875 91.5579)" class="st0" width="15.7" height="4.3"/>
	<path class="st0" d="M102.2,162.7c-1.6,0-3.2-0.9-4-2.3l-13.4-23.2c-1.3-2.2-0.5-5,1.7-6.3l10.7-6.2l18,31.2l-10.7,6.2
		C103.8,162.5,103,162.7,102.2,162.7z M95.7,130.6l-7,4l13.5,23.8c0.1,0,0.1,0,0.1,0l7-4L95.7,130.6z"/>
	<path class="st0" d="M79.1,109.3L79.1,109.3c-0.4,0-0.8-0.1-1.2-0.2l-30.6-8.2c-2.5-0.7-3.9-3.2-3.3-5.7L57.5,45
		c0.9-3.5,4.7-5.7,8.2-4.8c0.8,0.2,1.6,0.6,2.2,1.1l0.3-1.1c0.9-3.5,4.7-5.7,8.2-4.8c1.6,0.4,3,1.5,4,2.9c1.4-0.8,3.2-1,4.9-0.6
		c1.7,0.5,3.2,1.6,4.1,3.1c0.7,1.2,1,2.6,0.9,3.9c0.8-0.1,1.7,0,2.6,0.2c1.7,0.5,3.2,1.6,4.1,3.1c0.9,1.6,1.1,3.4,0.7,5.1l-6.4,23.7
		l4.7-2.7c3.9-2.2,9.3-0.8,11.5,3.1c2.3,4,0.9,9.2-3.1,11.5L86.1,99.6c-0.6,0.4-1,0.9-1.2,1.6l-1.3,4.7
		C83.1,107.9,81.2,109.3,79.1,109.3z M64.1,44.3c-1.1,0-2.1,0.7-2.3,1.8L48.2,96.4l30.9,8.6c0.1,0,0.3-0.1,0.3-0.2l1.3-4.7
		c0.5-1.8,1.6-3.2,3.2-4.2l18.4-10.6c2-1.1,2.6-3.7,1.5-5.6c-1.1-1.9-3.7-2.6-5.6-1.5L84.5,86l9-33.8c0.2-0.6,0.1-1.3-0.2-1.8
		c-0.3-0.6-0.8-1-1.5-1.1c-1.2-0.3-2.6,0.5-3,1.7v0l0,0l-4.2-1.1L86,45c0.3-1.3-0.4-2.6-1.7-3c-1.3-0.3-2.6,0.5-3,1.7v0l-4.2-1.1
		l0,0c0.2-0.6,0.1-1.3-0.3-1.8c-0.3-0.6-0.8-1-1.5-1.1c-1.3-0.3-2.6,0.5-3,1.7l-1.9,7.1c0,0,0,0,0,0l-4.2-1.1l0,0
		c0.2-0.6,0.1-1.3-0.3-1.8c-0.3-0.6-0.8-1-1.5-1.1C64.5,44.4,64.3,44.3,64.1,44.3z"/>
	<rect x="75.4" y="57" transform="matrix(0.2589 -0.9659 0.9659 0.2589 5.4642 125.3675)" class="st0" width="18" height="4.3"/>
	
		<rect x="64.7" y="52.1" transform="matrix(0.2577 -0.9662 0.9662 0.2577 4.1205 113.9708)" class="st0" width="23.1" height="4.3"/>
	
		<rect x="58.6" y="53.4" transform="matrix(0.2579 -0.9662 0.9662 0.2579 -4.3273 105.3863)" class="st0" width="15.7" height="4.3"/>
	<path class="st0" d="M73.5,120.9c-0.4,0-0.8-0.1-1.2-0.2l-25.9-6.9c-1.2-0.3-2.2-1.1-2.8-2.2c-0.6-1.1-0.8-2.3-0.4-3.5l3.2-12
		l34.8,9.3l-3.2,12C77.4,119.5,75.6,120.9,73.5,120.9z M49.4,101.5l-2.1,7.8l26.1,7.3c0.1,0,0.3-0.1,0.3-0.2l2.1-7.8L49.4,101.5z"/>
</g>
</svg>
