<?xml version="1.0" encoding="utf-8"?>
<!-- Generator: Adobe Illustrator 23.0.6, SVG Export Plug-In . SVG Version: 6.00 Build 0)  -->
<svg version="1.1" id="Heavy_Pants" xmlns="http://www.w3.org/2000/svg" xmlns:xlink="http://www.w3.org/1999/xlink" x="0px"
	 y="0px" viewBox="0 0 200 200" style="enable-background:new 0 0 200 200;" xml:space="preserve">
<style type="text/css">
	.st0{fill:#2D2D2D;}
</style>
<path class="st0" d="M62,33.3V43v19.7v32.6v15.5v20.9v34.9h76v-34.9v-20.9V95.3V62.7V43v-9.6H62z M121.9,47.2h11.9v11.3H130
	c-4.4,0-8.1-3.6-8.1-8.1V47.2z M133.8,43h-16.1H94.8v-5.4h39V43z M102.1,47.2h5.3v24.2c0,1.1-1,2.1-2.1,2.1h-3.2V47.2z M90.6,37.5
	V43h-8.3H66.2v-5.4H90.6z M66.2,47.2h11.9v3.2c0,4.4-3.6,8.1-8,8.1h-3.8V47.2z M84.3,100.9c0,3.2-2.6,5.8-5.8,5.8H66.2v-7.1h18.1
	V100.9z M78.5,110.9c2.2,0,4.2-0.7,5.8-1.9v18.5H66.2v-16.7H78.5z M88.5,131.7v-30.9v-5.5H66.2V62.7H70c6.8,0,12.3-5.5,12.3-12.3
	v-3.2h15.6v105.7H66.2v-21.1H88.5z M66.2,157.1h31.7v5.4H66.2V157.1z M102.1,162.5v-5.4h31.7v5.4H102.1z M133.8,127.5h-18.1V109
	c1.6,1.2,3.6,1.9,5.8,1.9h12.3V127.5z M115.7,100.9v-1.3h18.1v7.1h-12.3C118.3,106.7,115.7,104.1,115.7,100.9z M133.8,95.3h-22.3
	v5.5v30.9h22.3v21.1h-31.7V77.7h3.2c3.5,0,6.3-2.8,6.3-6.3V47.2h6.1v3.2c0,6.8,5.5,12.3,12.3,12.3h3.8V95.3z"/>
</svg>
