<?xml version="1.0" encoding="utf-8"?>
<!-- Generator: Adobe Illustrator 23.0.6, SVG Export Plug-In . SVG Version: 6.00 Build 0)  -->
<svg version="1.1" id="Hoodie" xmlns="http://www.w3.org/2000/svg" xmlns:xlink="http://www.w3.org/1999/xlink" x="0px" y="0px"
	 viewBox="0 0 200 200" style="enable-background:new 0 0 200 200;" xml:space="preserve">
<style type="text/css">
	.st0{fill:#2D2D2D;}
</style>
<g>
	<path class="st0" d="M147.6,69.2c-2.8-2.8-6.1-5-9.8-6.6c-3.7-1.5-7.6-2.3-11.6-2.3V42.6c0-14.5-11.8-26.2-26.2-26.2
		c-14.5,0-26.2,11.8-26.2,26.2v17.7c-4,0-7.8,0.8-11.6,2.3c-3.7,1.5-7,3.7-9.8,6.6c-5.7,5.7-8.9,13.3-8.9,21.4v54.8
		c0,1.6,0.9,2.9,2.2,3.6v5.1c0,2.3,1.8,4.1,4.1,4.1h12.9c0.7,3.1,3.2,5.6,6.3,6.3v4.9c0,2.3,1.8,4.1,4.1,4.1H127
		c2.3,0,4.1-1.8,4.1-4.1v-4.9c3.1-0.7,5.6-3.2,6.3-6.3h12.8c2.3,0,4.1-1.8,4.1-4.1v-5.1c1.3-0.7,2.2-2,2.2-3.6V90.6
		C156.5,82.6,153.3,75,147.6,69.2z M77.6,42.6c0-12.4,10.1-22.4,22.4-22.4c12.4,0,22.4,10.1,22.4,22.4v17.7v1.9
		c0,7.6-6.2,13.8-13.8,13.8H91.4c-7.6,0-13.8-6.2-13.8-13.8v-1.9V42.6z M49.5,154.2v-4.6h12.9v3.6v1.3L49.5,154.2z M127.2,169.5
		c0,0.2-0.1,0.3-0.3,0.3l-54.2-0.3v-4.6h54.5V169.5z M129.1,161H70.9c-2.6,0-4.6-2.1-4.6-4.6v-3.3v-7.4v-41.9c0-4.6-3.8-6.7-3.9-6.8
		l-1.8,3.4c0,0,1.9,1.1,1.9,3.4v41.8l-15.1-0.2V90.6c0-7,2.8-13.7,7.8-18.7c2.5-2.4,5.3-4.4,8.6-5.7c3.2-1.4,6.6-2,10.1-2h0.1
		c0.1,1.1,0.4,2.2,0.7,3.3c0,0.2,0.1,0.3,0.2,0.4c0.1,0.4,0.3,0.8,0.4,1.1c0.1,0.2,0.2,0.4,0.3,0.6c0.1,0.3,0.3,0.6,0.5,0.9
		c0.1,0.2,0.2,0.4,0.3,0.6c0.2,0.3,0.3,0.6,0.5,0.8c0.1,0.2,0.3,0.4,0.4,0.6c0.2,0.3,0.4,0.5,0.6,0.8c0.2,0.2,0.3,0.4,0.5,0.5
		c0.2,0.2,0.4,0.5,0.6,0.7c0.2,0.2,0.3,0.3,0.5,0.5c0.2,0.2,0.4,0.4,0.7,0.6c0.2,0.2,0.4,0.3,0.6,0.5c0.2,0.2,0.5,0.4,0.7,0.5
		c0.2,0.1,0.4,0.3,0.6,0.4c0.3,0.2,0.5,0.3,0.8,0.5c0.2,0.1,0.4,0.2,0.6,0.4c0.3,0.1,0.6,0.3,0.8,0.4c0.2,0.1,0.4,0.2,0.7,0.3
		c0.3,0.1,0.6,0.2,0.9,0.3c0.2,0.1,0.5,0.2,0.7,0.2c0.3,0.1,0.6,0.2,1,0.3c0.2,0.1,0.4,0.1,0.7,0.2c0.4,0.1,0.7,0.1,1.1,0.2
		c0.1,0,0.3,0,0.4,0.1V95h3.8V79.9h13.3V95h3.8V79.8c0.1,0,0.3,0,0.4-0.1c0.4,0,0.8-0.1,1.1-0.2c0.2,0,0.4-0.1,0.7-0.2
		c0.3-0.1,0.7-0.2,1-0.3c0.2-0.1,0.5-0.2,0.7-0.2c0.3-0.1,0.6-0.2,0.9-0.3c0.2-0.1,0.4-0.2,0.7-0.3c0.3-0.1,0.6-0.3,0.8-0.4
		c0.2-0.1,0.4-0.2,0.6-0.4c0.3-0.2,0.5-0.3,0.8-0.5c0.2-0.1,0.4-0.3,0.6-0.4c0.2-0.2,0.5-0.4,0.7-0.5c0.2-0.2,0.4-0.3,0.6-0.5
		c0.2-0.2,0.5-0.4,0.7-0.6c0.2-0.2,0.4-0.3,0.5-0.5c0.2-0.2,0.4-0.4,0.6-0.7c0.2-0.2,0.3-0.4,0.5-0.5c0.2-0.2,0.4-0.5,0.6-0.8
		c0.1-0.2,0.3-0.4,0.4-0.6c0.2-0.3,0.3-0.6,0.5-0.8c0.1-0.2,0.2-0.4,0.3-0.6c0.2-0.3,0.3-0.6,0.5-0.9c0.1-0.2,0.2-0.4,0.3-0.6
		c0.2-0.4,0.3-0.7,0.4-1.1c0.1-0.1,0.1-0.3,0.2-0.4c0.3-1.1,0.6-2.2,0.7-3.3h0.1c3.5,0,6.9,0.7,10.1,2c3.2,1.3,6.1,3.3,8.6,5.7
		c5,5,7.8,11.7,7.8,18.7l-0.3,55.1h-14.8v-41.9c0-2.3,1.9-3.4,1.9-3.4l-1.8-3.4c-0.2,0.1-3.9,2.2-3.9,6.8v41.9h0v10.7
		C133.7,159,131.7,161,129.1,161z M150.5,154.2c0,0.1-0.1,0.3-0.3,0.3h-12.6v-1.4v-3.6h12.9V154.2z"/>
	<path class="st0" d="M91.4,71.2h17.2c4.9,0,8.9-4,8.9-8.9V42.6c0-9.6-7.8-17.5-17.5-17.5S82.5,33,82.5,42.6v19.6
		C82.5,67.2,86.5,71.2,91.4,71.2z M86.3,42.6c0-7.5,6.1-13.7,13.7-13.7c7.5,0,13.7,6.1,13.7,13.7v19.6c0,2.8-2.3,5.1-5.1,5.1H91.4
		c-2.8,0-5.1-2.3-5.1-5.1V42.6z"/>
</g>
</svg>
