<?xml version="1.0" encoding="utf-8"?>
<!-- Generator: Adobe Illustrator 23.0.6, SVG Export Plug-In . SVG Version: 6.00 Build 0)  -->
<svg version="1.1" id="Jacket" xmlns="http://www.w3.org/2000/svg" xmlns:xlink="http://www.w3.org/1999/xlink" x="0px" y="0px"
	 viewBox="0 0 200 200" style="enable-background:new 0 0 200 200;" xml:space="preserve">
<style type="text/css">
	.st0{fill:#2D2D2D;}
</style>
<path class="st0" d="M144.5,56.5c-2.6-2.6-5.7-4.7-9.2-6.1c-3.5-1.4-7.1-2.2-10.8-2.2h-7.4v-4.3c0-2.1-1.7-3.8-3.8-3.8H86.8
	c-2.1,0-3.8,1.7-3.8,3.8v4.3h-7.4c-3.7,0-7.3,0.7-10.8,2.2c-3.5,1.4-6.6,3.5-9.2,6.1c-5.3,5.4-8.3,12.4-8.3,20v51.2
	c0,1.5,0.8,2.7,2,3.4v4.8c0,2.1,1.7,3.8,3.8,3.8h11.8v4.3c0,1.5,0.8,2.7,2,3.4v4.8c0,2.1,1.7,3.8,3.8,3.8h58.5
	c2.1,0,3.8-1.7,3.8-3.8v-4.8c1.2-0.6,2-1.9,2-3.4v-4.3h11.8c2.1,0,3.8-1.7,3.8-3.8V131c1.2-0.6,2-1.9,2-3.4V76.5
	C152.8,68.9,149.8,61.9,144.5,56.5z M86.8,43.6l26.7,0.3v4.3H86.6L86.8,43.6z M64.9,131.8v4.2l-12-0.2v-4.3h12V131.8z M98.2,152.2
	l-27.7-0.1v-4.3h27.7V152.2z M98.2,144.1L68.5,144v-4.3v-1l16.1-16.1L82,120l-13.6,13.6v-1.7v-3.9V75.1h-3.6v52.7l-14.1-0.2V76.5
	c0-6.6,2.6-12.8,7.2-17.5c2.3-2.3,5-4.1,8-5.3c3-1.3,6.2-1.9,9.4-1.9h7.4h15.3V144.1z M129.5,152.1c0,0.1-0.1,0.3-0.3,0.3l-27.5-0.1
	v-4.5h27.7V152.1z M147.1,135.8c0,0.1-0.1,0.3-0.3,0.3h-11.8v-4.3h0v-0.3h12V135.8z M148.9,127.9h-13.8V75.1h-3.6v52.8h0v5.6
	L118,120l-2.5,2.5l16.1,16.1v1v4.3c0,0.1-0.1,0.3-0.3,0.3l-29.5-0.1V51.8h15.3h7.4c3.2,0,6.4,0.6,9.4,1.9c3,1.3,5.7,3.1,8,5.3
	c4.7,4.7,7.2,10.9,7.2,17.5L148.9,127.9z"/>
</svg>
