<?xml version="1.0" encoding="utf-8"?>
<!-- Generator: Adobe Illustrator 23.0.6, SVG Export Plug-In . SVG Version: 6.00 Build 0)  -->
<svg version="1.1" id="Jeans" xmlns="http://www.w3.org/2000/svg" xmlns:xlink="http://www.w3.org/1999/xlink" x="0px" y="0px"
	 viewBox="0 0 200 200" style="enable-background:new 0 0 200 200;" xml:space="preserve">
<style type="text/css">
	.st0{fill:#2D2D2D;}
</style>
<path class="st0" d="M62,33.3V43v19.7v104h76v-104V43v-9.6H62z M121.9,47.2h11.9v11.3H130c-4.4,0-8-3.6-8-8.1V47.2z M133.8,43h-16.1
	H94.8v-5.4h39V43z M102.1,47.2h5.3v24.2c0,1.1-1,2.1-2.1,2.1h-3.2V47.2z M90.6,37.5V43h-8.3H66.2v-5.4H90.6z M66.2,47.2h11.9v3.2
	c0,4.4-3.6,8.1-8.1,8.1h-3.8V47.2z M66.2,62.7H70c6.8,0,12.3-5.5,12.3-12.3v-3.2h15.6v115.3H66.2V62.7z M133.8,162.5h-31.7V77.7h3.2
	c3.5,0,6.3-2.8,6.3-6.3V47.2h6.1v3.2c0,6.8,5.5,12.3,12.3,12.3h3.8V162.5z"/>
</svg>
