<?xml version="1.0" encoding="utf-8"?>
<!-- Generator: Adobe Illustrator 23.0.6, SVG Export Plug-In . SVG Version: 6.00 Build 0)  -->
<svg version="1.1" id="Light_Pants" xmlns="http://www.w3.org/2000/svg" xmlns:xlink="http://www.w3.org/1999/xlink" x="0px"
	 y="0px" viewBox="0 0 200 200" style="enable-background:new 0 0 200 200;" xml:space="preserve">
<style type="text/css">
	.st0{fill:#2D2D2D;}
</style>
<path class="st0" d="M62,33.3v133.3h76V33.3H62z M133.8,58.6l-11.5-11.5h11.5V58.6z M133.8,37.5V43H66.2v-5.4H133.8z M102.1,47.2
	h5.3v24.2c0,1.1-1,2.1-2.1,2.1h-3.2V47.2z M77.7,47.2L66.2,58.6V47.2H77.7z M66.2,64.6l17.4-17.4h14.3v115.3H66.2V64.6z
	 M102.1,162.5V77.7h3.2c3.5,0,6.3-2.8,6.3-6.3V47.2h4.8l17.4,17.4v97.9H102.1z"/>
</svg>
