<?xml version="1.0" encoding="utf-8"?>
<!-- Generator: Adobe Illustrator 23.0.6, SVG Export Plug-In . SVG Version: 6.00 Build 0)  -->
<svg version="1.1" id="Overcoat" xmlns="http://www.w3.org/2000/svg" xmlns:xlink="http://www.w3.org/1999/xlink" x="0px" y="0px"
	 viewBox="0 0 200 200" style="enable-background:new 0 0 200 200;" xml:space="preserve">
<style type="text/css">
	.st0{fill:#2D2D2D;}
</style>
<g>
	<path class="st0" d="M144.5,45.7c-2.6-2.6-5.7-4.7-9.2-6.1c-3.5-1.4-7.1-2.2-10.8-2.2h-49c-3.7,0-7.3,0.7-10.8,2.2
		c-3.5,1.4-6.6,3.5-9.2,6.1c-5.3,5.4-8.3,12.4-8.3,20v55h13.6v36.1c0,4.4,3.5,7.9,7.9,7.9h29v-6.2h4.6v6.2h29c4.4,0,7.9-3.5,7.9-7.9
		V121v-0.3h13.6v-55C152.8,58.1,149.8,51,144.5,45.7z M125,41v17.7l-6.8,2.3c-1.4,0.5-2.4,1.7-2.6,3.2c-0.2,1.5,0.5,2.9,1.8,3.7
		l4.9,3l-16.4,16.5V60l15.6-19.1h3C124.6,40.9,124.8,41,125,41z M78.5,40.9L94.1,60v27.3L77.7,70.9l4.9-3c1.3-0.8,2-2.2,1.8-3.7
		c-0.2-1.5-1.2-2.7-2.6-3.2L75,58.7V41c0.2,0,0.3,0,0.5,0H78.5z M94.1,161.1H68.7c-2.3,0-4.3-2-4.3-4.3V121h0V64.3h-3.6v52.8h-10
		V65.6c0-6.6,2.6-12.8,7.2-17.5c2.3-2.3,5-4.1,8-5.3c1.8-0.7,3.6-1.2,5.4-1.6v19.9l9.2,3.1l0.6-1.7l-0.5,2.1L72,70.2l22.2,22.2v62.5
		v1.8V161.1z M97.7,154.9V58.7L83.1,40.9h33.7l-14.6,17.8v96.1H97.7z M149.2,117.1h-10V64.3h-3.6v52.8v3.9v35.8c0,2.3-2,4.3-4.3,4.3
		h-25.4v-4.4v-1.8V92.4L128,70.2l-8.8-5.4l0.1-0.5l9.2-3.1V41.3c1.8,0.3,3.6,0.8,5.4,1.6c3,1.3,5.7,3.1,8,5.3
		c4.7,4.7,7.2,10.9,7.2,17.5V117.1z"/>
	<path class="st0" d="M84.2,101.2c-3,0-5.4,2.4-5.4,5.4c0,2.9,2.4,5.4,5.4,5.4s5.4-2.4,5.4-5.4C89.6,103.6,87.1,101.2,84.2,101.2z
		 M84.2,108.3c-1,0-1.8-0.8-1.8-1.8s0.8-1.8,1.8-1.8s1.8,0.8,1.8,1.8S85.2,108.3,84.2,108.3z"/>
	<path class="st0" d="M84.2,117.5c-3,0-5.4,2.4-5.4,5.4c0,2.9,2.4,5.4,5.4,5.4s5.4-2.4,5.4-5.4C89.6,119.9,87.1,117.5,84.2,117.5z
		 M84.2,124.6c-1,0-1.8-0.8-1.8-1.8c0-1,0.8-1.8,1.8-1.8s1.8,0.8,1.8,1.8C86,123.8,85.2,124.6,84.2,124.6z"/>
	<rect x="112.2" y="104.2" class="st0" width="6.1" height="3.6"/>
	<rect x="112.2" y="120.5" class="st0" width="6.1" height="3.6"/>
</g>
</svg>
