<?xml version="1.0" encoding="utf-8"?>
<!-- Generator: Adobe Illustrator 23.0.6, SVG Export Plug-In . SVG Version: 6.00 Build 0)  -->
<svg version="1.1" id="Parasol" xmlns="http://www.w3.org/2000/svg" xmlns:xlink="http://www.w3.org/1999/xlink" x="0px" y="0px"
	 viewBox="0 0 200 200" style="enable-background:new 0 0 200 200;" xml:space="preserve">
<style type="text/css">
	.st0{fill:#2D2D2D;}
</style>
<g>
	<g>
		<path class="st0" d="M158.3,102.3H41.7v-2C41.7,68.2,67.9,42,100,42s58.3,26.1,58.3,58.3V102.3z M45.8,98.3h108.4
			c-1.1-29-25-52.2-54.2-52.2S46.8,69.3,45.8,98.3z"/>
	</g>
	<g>
		<path class="st0" d="M122.1,102.3H77.9v-2C77.9,67.6,87.6,42,100,42s22.1,25.6,22.1,58.3V102.3z M81.9,98.3h36.1
			c-0.4-30.9-9.7-52.2-18.1-52.2S82.3,67.4,81.9,98.3z"/>
	</g>
	<g>
		<rect x="98" y="100.3" class="st0" width="4" height="65.7"/>
	</g>
	<g>
		<path class="st0" d="M100,46.1c-1.1,0-2-0.9-2-2v-8c0-1.1,0.9-2,2-2s2,0.9,2,2v8C102,45.2,101.1,46.1,100,46.1z"/>
	</g>
</g>
</svg>
