<?xml version="1.0" encoding="utf-8"?>
<!-- Generator: Adobe Illustrator 23.0.6, SVG Export Plug-In . SVG Version: 6.00 Build 0)  -->
<svg version="1.1" id="Sandals" xmlns="http://www.w3.org/2000/svg" xmlns:xlink="http://www.w3.org/1999/xlink" x="0px" y="0px"
	 viewBox="0 0 200 200" style="enable-background:new 0 0 200 200;" xml:space="preserve">
<style type="text/css">
	.st0{fill:#2D2D2D;}
</style>
<path class="st0" d="M160.4,105.8c0-10.7-8.7-19.4-19.4-19.4h-23.7v4.1h0v18.9H67.7c-0.3-3.8-1.4-7.5-3.2-10.7l41.4-23.9l-6.6-11.4
	L55.2,88.8c-3.6-2.2-7.7-3.6-12.1-4v-0.1H39v24.6h0v13.2h121.4v-9.1h0V105.8z M121.4,90.5H141c8.4,0,15.3,6.9,15.3,15.3v3.6l-22.4,0
	v0h-12.5V90.5z M97.8,69l2.5,4.3l-38,21.9c-1-1.4-2.2-2.6-3.5-3.8L97.8,69z M43.1,89c10.8,1,19.5,9.6,20.4,20.4H43.1V89z
	 M156.3,118.5H43.1v-5h113.2V118.5z"/>
</svg>
