<?xml version="1.0" encoding="utf-8"?>
<!-- Generator: Adobe Illustrator 23.0.6, SVG Export Plug-In . SVG Version: 6.00 Build 0)  -->
<svg version="1.1" id="Scarf" xmlns="http://www.w3.org/2000/svg" xmlns:xlink="http://www.w3.org/1999/xlink" x="0px" y="0px"
	 viewBox="0 0 200 200" style="enable-background:new 0 0 200 200;" xml:space="preserve">
<style type="text/css">
	.st0{fill:#2D2D2D;}
</style>
<path class="st0" d="M157.5,112.9v-4h-10.2h-2h-11.1c0.3-1.3,0.5-2.7,0.5-4.2V64.1c0-9.7-7.9-17.6-17.6-17.6H52.7v0H42.5v4h10.2v6.1
	H42.5v4h10.2v6.1H42.5v4h10.2v6.1H42.5v4h10.2v6.1H42.5v4h10.2v0h13.1c-0.3,1.4-0.5,2.8-0.5,4.2v40.6c0,9.7,7.9,17.6,17.6,17.6h62.4
	v0h12.2v-4h-10.2v-6.1h10.2v-4h-10.2v-6.1h10.2v-4h-10.2v-6.1h10.2v-4h-10.2v-6.1H157.5z M56.7,50.5h60.4c7.5,0,13.6,6.1,13.6,13.6
	v29.4c-3.2-3.9-8.1-6.4-13.6-6.4H56.7V50.5z M117.1,91.1c7.5,0,13.6,6.1,13.6,13.6c0,7.5-6.1,13.6-13.6,13.6H82.9
	c-5.5,0-10.4,2.5-13.6,6.4V95.3c0-1.4,0.2-2.8,0.7-4.2H117.1z M143.3,149.5H82.9c-7.5,0-13.6-6.1-13.6-13.6
	c0-7.5,6.1-13.6,13.6-13.6h34.2c6.8,0,12.6-3.8,15.6-9.4h10.6V149.5z"/>
</svg>
