<?xml version="1.0" encoding="utf-8"?>
<!-- Generator: Adobe Illustrator 23.0.6, SVG Export Plug-In . SVG Version: 6.00 Build 0)  -->
<svg version="1.1" id="Shoes" xmlns="http://www.w3.org/2000/svg" xmlns:xlink="http://www.w3.org/1999/xlink" x="0px" y="0px"
	 viewBox="0 0 200 200" style="enable-background:new 0 0 200 200;" xml:space="preserve">
<style type="text/css">
	.st0{fill:#2D2D2D;}
</style>
<path class="st0" d="M144.4,95h-14.8c-16.9,0-19.4-18.2-19.4-29.1v-2.1H96.6l-0.2,1.9c-0.6,5.7-5.5,10.2-11.2,10.2H42.5V118v4.1v9.1
	H90v-9.1l5.5,0l12.2,7.6c1.8,1.2,3.9,1.7,6.6,1.7h49.6v-9.3V118v-3.6C163.9,103.7,155.1,95,144.4,95z M85.2,80
	c7.2,0,13.5-5.2,15-12.1h5.9c0.1,4.7,0.7,8.9,1.7,12.5h-7.7v4.1h9c0.7,1.7,1.5,3.3,2.4,4.7v0h-8v4.1h8v8.1h-5.7
	c-9.8,0-18,7.1-19.7,16.5l-15,0c-1-13.1-11.5-23.6-24.6-24.6V80H85.2z M46.6,97.5c10.8,1,19.5,9.6,20.4,20.4l-2.1,0l-18.4,0V97.5z
	 M85.8,127.1H46.6v-5l39.3,0V127.1z M159.7,122.1v5.2h-45.5c-1.9,0-3.2-0.3-4.4-1l-6.6-4.1l20.7,0H159.7z M90.3,118
	c1.6-7.1,7.9-12.4,15.5-12.4h9.8V94.2c3.7,3.2,8.4,4.9,14,4.9h14.8c8.4,0,15.3,6.9,15.3,15.3v3.6l-37.4,0H90.3z"/>
</svg>
