<?xml version="1.0" encoding="utf-8"?>
<!-- Generator: Adobe Illustrator 23.0.6, SVG Export Plug-In . SVG Version: 6.00 Build 0)  -->
<svg version="1.1" id="Shorts" xmlns="http://www.w3.org/2000/svg" xmlns:xlink="http://www.w3.org/1999/xlink" x="0px" y="0px"
	 viewBox="0 0 200 200" style="enable-background:new 0 0 200 200;" xml:space="preserve">
<style type="text/css">
	.st0{fill:#2D2D2D;}
</style>
<path class="st0" d="M55,59.3v11.4V94v46.7h90V94V70.7V59.3H55z M125.9,75.7H140V89h-4.5c-5.3,0-9.5-4.3-9.5-9.5V75.7z M140,70.7
	H121H93.8v-6.4H140V70.7z M102.5,75.7h6.3v28.7c0,1.3-1.1,2.5-2.5,2.5h-3.8V75.7z M88.8,64.3v6.4H79H60v-6.4H88.8z M60,75.7h14.1
	v3.8c0,5.3-4.3,9.5-9.5,9.5H60V75.7z M64.5,94c8,0,14.5-6.5,14.5-14.5v-3.8h18.5v48.7H60V94H64.5z M60,129.3h37.5v6.4H60V129.3z
	 M102.5,135.7v-6.4H140v6.4H102.5z M140,124.4h-37.5v-12.5h3.8c4.1,0,7.5-3.4,7.5-7.5V75.7h7.2v3.8c0,8,6.5,14.5,14.5,14.5h4.5
	V124.4z"/>
</svg>
