<?xml version="1.0" encoding="utf-8"?>
<!-- Generator: Adobe Illustrator 23.0.6, SVG Export Plug-In . SVG Version: 6.00 Build 0)  -->
<svg version="1.1" id="Sleeved_Shirt" xmlns="http://www.w3.org/2000/svg" xmlns:xlink="http://www.w3.org/1999/xlink" x="0px"
	 y="0px" viewBox="0 0 200 200" style="enable-background:new 0 0 200 200;" xml:space="preserve">
<style type="text/css">
	.st0{fill:#2D2D2D;}
</style>
<path class="st0" d="M147.6,54.8c-2.8-2.8-6.1-5-9.8-6.6c-3.7-1.5-7.6-2.3-11.6-2.3h-7.8h-1.9H84.4h-1.9h-8.7c-4,0-7.9,0.8-11.6,2.3
	c-3.7,1.5-7,3.8-9.8,6.6c-5.7,5.7-8.9,13.3-8.9,21.4V131c0,2.3,1.8,4.1,4.1,4.1h14.8v5.4h0v14.2h75.2v-19.7h14.8
	c2.3,0,4.1-1.8,4.1-4.1V76.2C156.5,68.2,153.3,60.6,147.6,54.8z M116.4,49.8c-1,7.9-7.7,14.1-15.9,14.1s-14.9-6.2-15.9-14.1H116.4z
	 M66.2,151V146h67.6v4.9H66.2z M152.4,131.3h-14.8v-28.7h0V89.4c0-2.3,1.9-3.4,1.9-3.4l-1.8-3.4c-0.2,0.1-3.9,2.2-3.9,6.8v49.3h0
	v1.8h0v1.7H66.2v-39.6h0V89.4c0-4.6-3.8-6.7-3.9-6.8L60.5,86c0,0,1.9,1.1,1.9,3.4v41.8L47.3,131V76.2c0-7,2.8-13.7,7.8-18.7
	c2.4-2.4,5.3-4.4,8.6-5.7c3.2-1.4,6.6-2,10.1-2h6.9c1,10,9.5,17.9,19.8,17.9c10.3,0,18.8-7.9,19.8-17.9h6c3.5,0,6.9,0.7,10.1,2
	c3.2,1.4,6.1,3.3,8.6,5.7c5,5,7.8,11.7,7.8,18.7L152.4,131.3z"/>
</svg>
