<?xml version="1.0" encoding="utf-8"?>
<!-- Generator: Adobe Illustrator 23.0.6, SVG Export Plug-In . SVG Version: 6.00 Build 0)  -->
<svg version="1.1" id="Sneakers" xmlns="http://www.w3.org/2000/svg" xmlns:xlink="http://www.w3.org/1999/xlink" x="0px" y="0px"
	 viewBox="0 0 200 200" style="enable-background:new 0 0 200 200;" xml:space="preserve">
<style type="text/css">
	.st0{fill:#2D2D2D;}
</style>
<path class="st0" d="M144.4,95h-14.8c-16.9,0-19.4-18.2-19.4-29.1v-2.1H96.6l-0.2,1.9C95.9,71.5,91,76,85.2,76l-42.8,0v42.1v4.1v9.1
	h121.4v-9.1v-4.1v-3.6C163.9,103.8,155.1,95,144.4,95z M159.7,114.5v3.6l-18.3,0V99.2h3C152.9,99.2,159.7,106,159.7,114.5z
	 M85.2,80.1c7.2,0,13.5-5.2,15-12.1h5.9c0.1,4.7,0.7,8.9,1.7,12.5h-7.7v4.1h9c0.7,1.7,1.5,3.3,2.4,4.7h-8v4.1h11.4
	c3.8,3.7,8.8,5.6,14.8,5.6h7.7V118l-66.2,0c-1-13.1-11.5-23.6-24.6-24.6V80.1H85.2z M46.6,97.6c10.8,1,19.5,9.6,20.4,20.4l-20.4,0
	V97.6z M159.7,127.2H46.6v-5h113.2V127.2z"/>
</svg>
