<?xml version="1.0" encoding="utf-8"?>
<!-- Generator: Adobe Illustrator 23.0.6, SVG Export Plug-In . SVG Version: 6.00 Build 0)  -->
<svg version="1.1" id="Socks" xmlns="http://www.w3.org/2000/svg" xmlns:xlink="http://www.w3.org/1999/xlink" x="0px" y="0px"
	 viewBox="0 0 200 200" style="enable-background:new 0 0 200 200;" xml:space="preserve">
<style type="text/css">
	.st0{fill:#2D2D2D;}
</style>
<path class="st0" d="M148,108.7c-0.8-1.3-1.7-2.6-2.8-3.7V56.2h-26.1V36.9H81.3v51.2c0,1.9-0.9,3.5-2.6,4.5l-27.8,16.1
	c-4.4,2.5-7.5,6.6-8.8,11.5c-1.3,4.9-0.6,10,1.9,14.3c2.5,4.4,6.6,7.5,11.5,8.8c1.6,0.4,3.3,0.7,4.9,0.7c2.5,0,5-0.5,7.3-1.5
	c-0.4,3.9,0.4,7.9,2.4,11.3c3.4,5.8,9.6,9.4,16.4,9.4c3.3,0,6.5-0.9,9.4-2.5l45.2-26.1C150.1,129.3,153.2,117.8,148,108.7z
	 M140.9,66.5h-29.2v-6h29.2V66.5z M114.8,41.2v6H85.6v-6H114.8z M56.6,139.1c-3.8-1-6.9-3.4-8.9-6.8c-3.7-6.3-2-14.3,3.6-18.7
	l7.3,12.7l3.7-2.1l-7.4-12.8l26-15c3-1.7,4.7-4.7,4.7-8.2V51.4h29.2v4.7h-7.4v51.2c0,1.9-0.9,3.5-2.6,4.5L77,127.9
	c-3.5,2-6.2,5.1-7.8,8.8l-1.5,0.9C64.3,139.6,60.4,140.1,56.6,139.1z M138.9,130.8l-45.2,26.1c-2.2,1.3-4.7,1.9-7.3,1.9
	c-5.2,0-10.1-2.8-12.7-7.3c-1.9-3.4-2.5-7.3-1.4-11.1c0.8-3.1,2.6-5.7,5-7.7l7.3,12.7l3.7-2.1L81,130.5l26-15c3-1.7,4.7-4.7,4.7-8.2
	V70.7h29.2v36.2l0.7,0.6c1,1,1.9,2.1,2.7,3.3C148.3,117.9,145.9,126.8,138.9,130.8z"/>
</svg>
