<?xml version="1.0" encoding="utf-8"?>
<!-- Generator: Adobe Illustrator 23.0.6, SVG Export Plug-In . SVG Version: 6.00 Build 0)  -->
<svg version="1.1" id="Sweat_Pants" xmlns="http://www.w3.org/2000/svg" xmlns:xlink="http://www.w3.org/1999/xlink" x="0px"
	 y="0px" viewBox="0 0 200 200" style="enable-background:new 0 0 200 200;" xml:space="preserve">
<style type="text/css">
	.st0{fill:#2D2D2D;}
</style>
<path class="st0" d="M133.1,47.4v-5.3c0-2.3-1.9-4.2-4.2-4.2H71.1c-2.3,0-4.2,1.9-4.2,4.2v5.3c-1.3,0.7-2.2,2.1-2.2,3.7v97.8
	c0,1.6,0.9,3,2.2,3.7v5.3c0,2.3,1.9,4.2,4.2,4.2h20c2.3,0,4.2-1.9,4.2-4.2v-5.3c1.3-0.7,2.2-2.1,2.2-3.7V81.8c0-1.4,1.1-2.5,2.5-2.5
	c1.4,0,2.5,1.1,2.5,2.5v67.1c0,1.6,0.9,3,2.2,3.7v5.3c0,2.3,1.9,4.2,4.2,4.2h20c2.3,0,4.2-1.9,4.2-4.2v-5.3c1.3-0.7,2.2-2.1,2.2-3.7
	V51.1C135.4,49.5,134.4,48.1,133.1,47.4z M71.1,41.9l58.1,0.3v4.8H70.9L71.1,41.9z M91.3,157.8c0,0.1-0.1,0.3-0.3,0.3l-20.3-0.3
	v-4.7h20.5V157.8z M100,75.3c-3.5,0-6.4,2.9-6.4,6.4l-0.3,67.4l-24.7-0.3l0.3-98.1l62.6,0.3v97.8c0,0.1-0.1,0.3-0.3,0.3l-24.7-0.3
	V81.8C106.4,78.2,103.5,75.3,100,75.3z M129.2,157.8c0,0.1-0.1,0.3-0.3,0.3l-20.3-0.3v-4.7h20.5V157.8z"/>
</svg>
