<?xml version="1.0" encoding="utf-8"?>
<!-- Generator: Adobe Illustrator 23.0.6, SVG Export Plug-In . SVG Version: 6.00 Build 0)  -->
<svg version="1.1" id="Sweater" xmlns="http://www.w3.org/2000/svg" xmlns:xlink="http://www.w3.org/1999/xlink" x="0px" y="0px"
	 viewBox="0 0 200 200" style="enable-background:new 0 0 200 200;" xml:space="preserve">
<style type="text/css">
	.st0{fill:#2D2D2D;}
</style>
<path class="st0" d="M147.6,52.6c-2.8-2.8-6.1-5-9.8-6.6c-3.7-1.5-7.6-2.3-11.6-2.3h-7.8h-1.9H84.4h-1.9h-8.7c-4,0-7.9,0.8-11.6,2.3
	c-3.7,1.5-7,3.8-9.8,6.6C46.7,58.4,43.5,66,43.5,74v54.8c0,1.6,0.9,2.9,2.2,3.6v9.2h16.9c0.7,3.1,3.2,5.6,6.3,6.3v9H131v-9
	c3.1-0.7,5.6-3.2,6.3-6.3h16.9v-9.2c1.3-0.7,2.2-2,2.2-3.6V74C156.5,66,153.3,58.4,147.6,52.6z M116.4,47.6
	c-1,7.9-7.7,14.1-15.9,14.1s-14.9-6.2-15.9-14.1H116.4z M49.5,132.9h12.9v3.6v1.4H49.5V132.9z M127.2,153.1H72.8v-4.9h54.5V153.1z
	 M129.1,144.4H70.9c-2.6,0-4.6-2.1-4.6-4.6v-3.3v-7.4V87.2c0-4.6-3.8-6.7-3.9-6.8l-1.8,3.4c0,0,1.9,1.1,1.9,3.4v41.8l-15.1-0.2V74
	c0-7,2.8-13.7,7.8-18.7c2.4-2.4,5.3-4.4,8.6-5.7c3.2-1.4,6.6-2,10.1-2h6.9c1,10,9.5,17.9,19.8,17.9c10.3,0,18.8-7.9,19.8-17.9h6
	c3.5,0,6.9,0.7,10.1,2c3.2,1.4,6.1,3.3,8.6,5.7c5,5,7.8,11.7,7.8,18.7l-0.3,55.1h-14.8V87.2c0-2.3,1.9-3.4,1.9-3.4l-1.8-3.4
	c-0.2,0.1-3.9,2.2-3.9,6.8v41.9h0v10.7C133.8,142.3,131.7,144.4,129.1,144.4z M150.5,137.9h-12.9v-1.4v-3.6h12.9V137.9z"/>
</svg>
