<?xml version="1.0" encoding="utf-8"?>
<!-- Generator: Adobe Illustrator 23.0.6, SVG Export Plug-In . SVG Version: 6.00 Build 0)  -->
<svg version="1.1" id="T-Shirt" xmlns="http://www.w3.org/2000/svg" xmlns:xlink="http://www.w3.org/1999/xlink" x="0px" y="0px"
	 viewBox="0 0 200 200" style="enable-background:new 0 0 200 200;" xml:space="preserve">
<style type="text/css">
	.st0{fill:#2D2D2D;}
</style>
<path class="st0" d="M147.6,57c-2.8-2.8-6.1-5-9.8-6.6c-3.7-1.5-7.6-2.3-11.6-2.3h-9.7v0H84.4v0H73.8c-4,0-7.9,0.8-11.6,2.3
	c-3.7,1.5-7,3.7-9.8,6.6c-5.7,5.7-8.9,13.3-8.9,21.4v22h18.9v52.2h75.2v-52.2h18.9v-22C156.5,70.3,153.3,62.7,147.6,57z M116.4,51.9
	c-1,7.9-7.7,14.1-15.9,14.1s-14.9-6.2-15.9-14.1H116.4z M66.2,148.8v-4.9h67.6v4.9H66.2z M152.7,96.6h-15.1v-5
	c0-2.3,1.9-3.4,1.9-3.4l-1.8-3.4c-0.2,0.1-3.9,2.2-3.9,6.8v5v1.9V140H66.2V98.5v-1.9v-5c0-4.6-3.8-6.7-3.9-6.8l-1.8,3.4
	c0,0,1.9,1.1,1.9,3.4v5H47.3V78.4c0-7,2.8-13.7,7.8-18.7c2.5-2.5,5.3-4.4,8.6-5.7c3.2-1.4,6.6-2,10.1-2h6.9c1,10,9.5,17.9,19.8,17.9
	c10.3,0,18.8-7.9,19.8-17.9h6c3.5,0,6.9,0.7,10.1,2c3.2,1.3,6.1,3.3,8.6,5.7c5,5,7.8,11.6,7.8,18.7V96.6z"/>
</svg>
