<?xml version="1.0" encoding="utf-8"?>
<!-- Generator: Adobe Illustrator 23.0.6, SVG Export Plug-In . SVG Version: 6.00 Build 0)  -->
<svg version="1.1" id="Umbrella" xmlns="http://www.w3.org/2000/svg" xmlns:xlink="http://www.w3.org/1999/xlink" x="0px" y="0px"
	 viewBox="0 0 200 200" style="enable-background:new 0 0 200 200;" xml:space="preserve">
<style type="text/css">
	.st0{fill:#2D2D2D;}
</style>
<path class="st0" d="M103.5,51.8v-5.2c0-1.2-1-2.2-2.2-2.2c-1.2,0-2.2,1-2.2,2.2v5.1C70.6,52.3,47.8,75.5,47.8,104
	c0,0.7,0.4,1.4,1,1.8c0.6,0.4,1.4,0.5,2.1,0.3c0,0,3.8-1.4,12.7-1.4c8.3,0,13.8,1.5,13.9,1.5c0.3,0.1,0.6,0.1,0.9,0
	c0.1,0,0.3,0,0.4,0c0.4,0,0.8-0.1,1.1-0.3c2.5-0.4,8.5-1.2,18.8-1.2c0.4,0,0.8,0,1.3,0v39.8c0,4.8-3.9,8.7-8.7,8.7h-2.7
	c-4.8,0-8.7-3.9-8.7-8.7c0-1.2-1-2.2-2.2-2.2s-2.2,1-2.2,2.2c0,7.3,5.9,13.2,13.2,13.2h2.7c7.3,0,13.2-5.9,13.2-13.2v-39.7
	c8.8,0.3,14,1,15.6,1.3c0.3,0.1,0.5,0.2,0.8,0.2c0,0,0.1,0,0.1,0c0.2,0,0.4,0,0.6,0c0.1,0,6.5-1.5,14.7-1.5c8.9,0,12.8,1.4,12.8,1.4
	c0.3,0.1,0.5,0.2,0.8,0.2c0.4,0,0.9-0.1,1.3-0.4c0.6-0.4,1-1.1,1-1.9C152.2,76.3,130.7,53.6,103.5,51.8z M52.3,101
	c1.3-21.8,17.4-39.8,38.4-43.9c-8.1,8.1-13.7,24.6-14.2,44.2c-2.5-0.5-7-1.2-13-1.2C58.3,100.1,54.7,100.6,52.3,101z M81,101.1
	c0.7-23.8,9.6-43.6,20.3-44.9c8.3,1.2,16.8,18.8,17.4,45c-3.5-0.5-10-1.1-19.9-1.1C90.1,100.1,84.3,100.7,81,101.1z M136.4,100.1
	c-5.7,0-10.5,0.7-13.3,1.1c-0.4-19.3-5.2-35.6-12.2-43.8c20.2,4.7,35.4,22.3,36.7,43.6C145.3,100.6,141.6,100.1,136.4,100.1z"/>
</svg>
