<?xml version="1.0" encoding="utf-8"?>
<!-- Generator: Adobe Illustrator 23.0.6, SVG Export Plug-In . SVG Version: 6.00 Build 0)  -->
<svg version="1.1" id="Underpants" xmlns="http://www.w3.org/2000/svg" xmlns:xlink="http://www.w3.org/1999/xlink" x="0px" y="0px"
	 viewBox="0 0 200 200" style="enable-background:new 0 0 200 200;" xml:space="preserve">
<style type="text/css">
	.st0{fill:#2D2D2D;}
</style>
<g>
	<path class="st0" d="M123.8,144H76.2v-2.3c0-15.6-12.7-28.4-28.4-28.4h-2.3V70.1h109v43.2h-2.3c-15.6,0-28.4,12.7-28.4,28.4V144z
		 M80.7,139.4h38.7c1.1-16.3,14.2-29.5,30.6-30.6V74.6H50.1v34.2C66.4,109.9,79.5,123,80.7,139.4z"/>
	<rect x="97.7" y="86.3" class="st0" width="4.6" height="55.3"/>
	<path class="st0" d="M100,127.9c-10.5,0-19.1-8.6-19.1-19.1V86.3h4.6v22.5c0,8,6.5,14.5,14.5,14.5L100,127.9z"/>
	<rect x="47.8" y="84" class="st0" width="104.4" height="4.6"/>
</g>
</svg>
