<?xml version="1.0" encoding="utf-8"?>
<!-- Generator: Adobe Illustrator 23.0.6, SVG Export Plug-In . SVG Version: 6.00 Build 0)  -->
<svg version="1.1" id="UV_Protection" xmlns="http://www.w3.org/2000/svg" xmlns:xlink="http://www.w3.org/1999/xlink" x="0px"
	 y="0px" viewBox="0 0 200 200" style="enable-background:new 0 0 200 200;" xml:space="preserve">
<style type="text/css">
	.st0{fill:#2D2D2D;}
</style>
<g>
	<path class="st0" d="M122.6,41.3H77.4C71.7,41.3,67,46,67,51.7v107h66v-107C133,46,128.3,41.3,122.6,41.3z M77.4,45.5h45.2
		c3.4,0,6.2,2.8,6.2,6.2v14.6H71.2V51.7C71.2,48.3,74,45.5,77.4,45.5z M71.2,154.5v-84h57.7v84H71.2z"/>
	<path class="st0" d="M100,104.4c-5.5,0-10,4.5-10,10s4.5,10,10,10c5.5,0,10-4.5,10-10S105.5,104.4,100,104.4z M100,120.2
		c-3.2,0-5.8-2.6-5.8-5.8c0-3.2,2.6-5.8,5.8-5.8c3.2,0,5.8,2.6,5.8,5.8C105.8,117.6,103.2,120.2,100,120.2z"/>
	<path class="st0" d="M120.8,112.3h-6.5c-1.1,0-2.1,0.9-2.1,2.1s0.9,2.1,2.1,2.1h6.5c1.1,0,2.1-0.9,2.1-2.1S122,112.3,120.8,112.3z"
		/>
	<path class="st0" d="M87.7,114.4c0-1.2-0.9-2.1-2.1-2.1h-6.5c-1.1,0-2.1,0.9-2.1,2.1s0.9,2.1,2.1,2.1h6.5
		C86.8,116.4,87.7,115.5,87.7,114.4z"/>
	<path class="st0" d="M100,126.6c-1.1,0-2.1,0.9-2.1,2.1v6.5c0,1.2,0.9,2.1,2.1,2.1c1.1,0,2.1-0.9,2.1-2.1v-6.5
		C102.1,127.6,101.1,126.6,100,126.6z"/>
	<path class="st0" d="M100,102.1c1.1,0,2.1-0.9,2.1-2.1v-6.5c0-1.2-0.9-2.1-2.1-2.1c-1.1,0-2.1,0.9-2.1,2.1v6.5
		C97.9,101.2,98.8,102.1,100,102.1z"/>
	<path class="st0" d="M111.6,123c-0.8-0.8-2.1-0.8-2.9,0c-0.8,0.8-0.8,2.1,0,2.9l4.6,4.6c0.4,0.4,0.9,0.6,1.5,0.6
		c0.5,0,1.1-0.2,1.5-0.6c0.8-0.8,0.8-2.1,0-2.9L111.6,123z"/>
	<path class="st0" d="M88.4,105.7c0.4,0.4,0.9,0.6,1.5,0.6s1.1-0.2,1.5-0.6c0.8-0.8,0.8-2.1,0-2.9l-4.6-4.6c-0.8-0.8-2.1-0.8-2.9,0
		c-0.8,0.8-0.8,2.1,0,2.9L88.4,105.7z"/>
	<path class="st0" d="M88.4,123l-4.6,4.6c-0.8,0.8-0.8,2.1,0,2.9c0.4,0.4,0.9,0.6,1.5,0.6c0.5,0,1.1-0.2,1.5-0.6l4.6-4.6
		c0.8-0.8,0.8-2.1,0-2.9C90.5,122.2,89.2,122.2,88.4,123z"/>
	<path class="st0" d="M110.1,106.3c0.5,0,1.1-0.2,1.5-0.6l4.6-4.6c0.8-0.8,0.8-2.1,0-2.9c-0.8-0.8-2.1-0.8-2.9,0l-4.6,4.6
		c-0.8,0.8-0.8,2.1,0,2.9C109.1,106.1,109.6,106.3,110.1,106.3z"/>
</g>
</svg>
