<?xml version="1.0" encoding="utf-8"?>
<!-- Generator: Adobe Illustrator 23.0.6, SVG Export Plug-In . SVG Version: 6.00 Build 0)  -->
<svg version="1.1" id="Vest" xmlns="http://www.w3.org/2000/svg" xmlns:xlink="http://www.w3.org/1999/xlink" x="0px" y="0px"
	 viewBox="0 0 200 200" style="enable-background:new 0 0 200 200;" xml:space="preserve">
<style type="text/css">
	.st0{fill:#2D2D2D;}
</style>
<g>
	<path class="st0" d="M145.6,92.7c-5.7,0-10.3-4.6-10.3-10.3V46.9H64.7v35.5c0,5.7-4.6,10.3-10.3,10.3h-1.9v60.4h95V92.7H145.6z
		 M112.8,149.3H87.2l10.4-10.8V77.6L83.7,50.7h32.6l-13.6,26l-0.2,61.8L112.8,149.3z M56.3,127.6h14v-3.8h-14V96.4
		c6.9-0.9,12.2-6.8,12.2-14V50.7h10.9L93.7,78V137l-11.9,12.3H56.3V127.6z M118.1,149.3L106.3,137V78l14.3-27.3h10.9v31.7
		c0,7.1,5.3,13,12.2,14v27.4h-14v3.8h14v21.6H118.1z"/>
	<rect x="109.9" y="93.2" class="st0" width="6.5" height="3.8"/>
	<rect x="109.9" y="110.6" class="st0" width="6.5" height="3.8"/>
	<rect x="109.9" y="128" class="st0" width="6.5" height="3.8"/>
	<path class="st0" d="M83.4,100.8c3.2,0,5.7-2.6,5.7-5.7c0-3.2-2.6-5.7-5.7-5.7c-3.2,0-5.7,2.6-5.7,5.7
		C77.7,98.3,80.3,100.8,83.4,100.8z M83.4,93.2c1.1,0,1.9,0.9,1.9,1.9c0,1.1-0.9,1.9-1.9,1.9c-1.1,0-1.9-0.9-1.9-1.9
		C81.5,94.1,82.4,93.2,83.4,93.2z"/>
	<path class="st0" d="M83.4,118.2c3.2,0,5.7-2.6,5.7-5.7c0-3.2-2.6-5.7-5.7-5.7c-3.2,0-5.7,2.6-5.7,5.7
		C77.7,115.7,80.3,118.2,83.4,118.2z M83.4,110.6c1.1,0,1.9,0.9,1.9,1.9s-0.9,1.9-1.9,1.9c-1.1,0-1.9-0.9-1.9-1.9
		S82.4,110.6,83.4,110.6z"/>
	<path class="st0" d="M83.4,135.7c3.2,0,5.7-2.6,5.7-5.7c0-3.2-2.6-5.7-5.7-5.7c-3.2,0-5.7,2.6-5.7,5.7
		C77.7,133.1,80.3,135.7,83.4,135.7z M83.4,128c1.1,0,1.9,0.9,1.9,1.9c0,1.1-0.9,1.9-1.9,1.9c-1.1,0-1.9-0.9-1.9-1.9
		C81.5,128.9,82.4,128,83.4,128z"/>
</g>
</svg>
