<?xml version="1.0" encoding="utf-8"?>
<!-- Generator: Adobe Illustrator 23.0.6, SVG Export Plug-In . SVG Version: 6.00 Build 0)  -->
<svg version="1.1" id="Water" xmlns="http://www.w3.org/2000/svg" xmlns:xlink="http://www.w3.org/1999/xlink" x="0px" y="0px"
	 viewBox="0 0 200 200" style="enable-background:new 0 0 200 200;" xml:space="preserve">
<style type="text/css">
	.st0{fill:#2D2D2D;}
</style>
<g>
	<path class="st0" d="M101.3,98.5l-1.3-1.1l-1.3,1.1c-4.2,3.4-11.2,11.1-10.9,18.7c0.3,6.6,5.6,11.7,12.2,11.7
		c6.6,0,12-5.2,12.2-11.8C112.5,109.6,105.5,101.8,101.3,98.5z M100,124.7c-4.3,0-7.9-3.4-8.1-7.7c-0.2-4.5,3.7-10.2,8.1-14.2
		c4.3,3.9,8.2,9.7,8.1,14.1C107.9,121.3,104.3,124.7,100,124.7z"/>
	<path class="st0" d="M116.5,56.1V45c0-5.8-4.7-10.5-10.5-10.5H94c-5.8,0-10.5,4.7-10.5,10.5v11.1L66.7,73v88.5h66.7V73L116.5,56.1z
		 M87.7,45c0-3.5,2.8-6.3,6.3-6.3h12c3.5,0,6.3,2.8,6.3,6.3v9.9H87.7V45z M129.1,157.3H70.9V74.7l15.6-15.6h27.1l15.6,15.6V157.3z"
		/>
</g>
</svg>
