<?xml version="1.0" encoding="utf-8"?>
<!-- Generator: Adobe Illustrator 23.0.6, SVG Export Plug-In . SVG Version: 6.00 Build 0)  -->
<svg version="1.1" id="Windbreaker" xmlns="http://www.w3.org/2000/svg" xmlns:xlink="http://www.w3.org/1999/xlink" x="0px"
	 y="0px" viewBox="0 0 200 200" style="enable-background:new 0 0 200 200;" xml:space="preserve">
<style type="text/css">
	.st0{fill:#2D2D2D;}
</style>
<g>
	<path class="st0" d="M131.3,168.8H68.7c-2.1,0-3.8-1.7-3.8-3.8v-22.4H51.1c-2.1,0-3.8-1.7-3.8-3.8V87.6c0-7.5,2.9-14.6,8.3-20
		c2.6-2.6,5.7-4.7,9.2-6.1c3.5-1.4,7.1-2.2,10.8-2.2V41.5C75.5,28,86.5,17,100,17c13.5,0,24.5,11,24.5,24.5v17.9
		c3.7,0,7.3,0.7,10.8,2.2c3.5,1.4,6.6,3.5,9.2,6.1c5.3,5.4,8.3,12.4,8.3,20v51.2c0,2.1-1.7,3.8-3.8,3.8h-13.8V165
		C135.1,167.1,133.4,168.8,131.3,168.8z M75.5,62.9c-3.2,0-6.4,0.6-9.4,1.9c-3,1.3-5.7,3.1-8,5.3c-4.7,4.7-7.2,10.9-7.2,17.5v51.2
		l17.6,0.3V165l62.8,0.3c0.1,0,0.3-0.1,0.3-0.3v-25.9h17.4l0.3-51.4c0-6.6-2.6-12.8-7.2-17.5c-2.3-2.3-5-4.1-8-5.3
		c-3-1.3-6.2-1.9-9.4-1.9h-3.8l0.2-2c0-0.4,0.1-0.8,0.1-1.2V41.5c0-11.5-9.4-20.9-20.9-20.9s-20.9,9.4-20.9,20.9v18.3
		c0,0.4,0,0.8,0.1,1.2l0.2,2H75.5z"/>
	<rect x="64.9" y="86.3" class="st0" width="3.6" height="56.6"/>
	<rect x="131.5" y="86.3" class="st0" width="3.6" height="56.6"/>
	<rect x="98.2" y="66.3" class="st0" width="3.6" height="99"/>
	<path class="st0" d="M108,68.1H92c-4.6,0-8.3-3.7-8.3-8.3V41.5c0-9,7.3-16.3,16.3-16.3c9,0,16.3,7.3,16.3,16.3v18.3
		C116.3,64.4,112.6,68.1,108,68.1z M100,28.7c-7,0-12.8,5.7-12.8,12.8v18.3c0,2.6,2.2,4.8,4.8,4.8h16c2.6,0,4.8-2.2,4.8-4.8V41.5
		C112.8,34.4,107,28.7,100,28.7z"/>
	<rect x="106.2" y="66.3" class="st0" width="3.6" height="24"/>
	<rect x="90.2" y="66.3" class="st0" width="3.6" height="24"/>
</g>
</svg>
