<?xml version="1.0" encoding="utf-8"?>
<!-- Generator: Adobe Illustrator 23.0.6, SVG Export Plug-In . SVG Version: 6.00 Build 0)  -->
<svg version="1.1" id="Winter_Shoes" xmlns="http://www.w3.org/2000/svg" xmlns:xlink="http://www.w3.org/1999/xlink" x="0px"
	 y="0px" viewBox="0 0 200 200" style="enable-background:new 0 0 200 200;" xml:space="preserve">
<style type="text/css">
	.st0{fill:#2D2D2D;}
</style>
<path class="st0" d="M145.6,107.3h-14.8c-16.9,0-19.4-18.2-19.4-29.1V42.3H97.8l-0.2,1.9c-0.6,5.7-5.5,10.2-11.2,10.2l-42.8,0v75.9
	v4.1v9.1h47.5v-9.1l5.5,0l12.2,7.6c1.8,1.1,3.9,1.7,6.6,1.7H165v-9.3v-4.1v-3.6C165,116,156.3,107.3,145.6,107.3z M86.4,58.5
	c7.2,0,13.5-5.2,15-12.1h5.8v19.9h-9.8v4.1h9.8v4.7h-9.8v4.1h9.8c0,1.6,0.1,3.2,0.2,4.7h-10v4.1H108c0.3,1.7,0.6,3.2,1,4.7h-7.7v4.1
	h9c0.7,1.7,1.5,3.3,2.4,4.7h-8v4.1h8v8.1H107c-9.8,0-18,7.1-19.7,16.5l-15,0c-1-13.1-11.5-23.6-24.6-24.6V58.5H86.4z M47.7,109.8
	c10.8,1,19.5,9.6,20.4,20.4l-2.1,0l-18.4,0V109.8z M87,139.4H47.7v-5l39.3,0V139.4z M160.9,134.4v5.2h-45.5c-1.9,0-3.2-0.3-4.4-1
	l-6.6-4.1l20.9,0H160.9z M91.4,130.3c1.6-7.1,7.9-12.4,15.5-12.4h9.8v-11.4c3.7,3.2,8.4,4.9,14,4.9h14.8c8.4,0,15.3,6.9,15.3,15.3
	v3.6l-37.4,0H91.4z"/>
</svg>
