<?xml version="1.0" encoding="utf-8"?>
<!-- Generator: Adobe Illustrator 23.0.6, SVG Export Plug-In . SVG Version: 6.00 Build 0)  -->
<svg version="1.1" id="Winter_Hat" xmlns="http://www.w3.org/2000/svg" xmlns:xlink="http://www.w3.org/1999/xlink" x="0px" y="0px"
	 viewBox="0 0 200 200" style="enable-background:new 0 0 200 200;" xml:space="preserve">
<style type="text/css">
	.st0{fill:#2D2D2D;}
</style>
<path class="st0" d="M148.8,109.7V98.8c0-24.1-17.6-44.2-40.7-48.1c1.5-1.8,2.4-4.1,2.4-6.6c0-5.8-4.7-10.5-10.5-10.5
	s-10.5,4.7-10.5,10.5c0,2.5,0.9,4.8,2.4,6.6c-23,3.9-40.7,23.9-40.7,48.1v10.9c-4.7,1-8.2,5.2-8.2,10.3v15.9
	c0,5.8,4.7,10.5,10.5,10.5h93c5.8,0,10.5-4.7,10.5-10.5v-15.9C157,114.9,153.5,110.7,148.8,109.7z M144.2,98.8v10.6h-7.4V98.8
	c0-15-5.1-28.4-13.2-37.4C136,69.3,144.2,83.1,144.2,98.8z M63.2,113.9h7.2v27.9h-9.2v-27.9H63.2z M132.3,109.4h-16.4V98.8
	c0-16.7-2.8-34.1-8.1-42.9c14,4.8,24.4,22.2,24.4,42.9V109.4z M111.4,98.8v10.6H88.6V98.8c0-27,6.8-44.2,11.4-44.2
	S111.4,71.8,111.4,98.8z M92.1,55.9c-5.3,8.8-8.1,26.2-8.1,42.9v10.6H67.7V98.8C67.7,78.1,78.1,60.7,92.1,55.9z M74.9,113.9h9.2h0
	v27.9h-9.2V113.9z M88.6,113.9h9.2v27.9h-9.2V113.9z M102.3,113.9h9.2v27.9h-9.2V113.9z M115.9,113.9h9.2v27.9h-9.2V113.9z
	 M129.6,113.9h7.2h2v27.9h-9.2V113.9z M94,44.1c0-3.3,2.7-6,6-6c3.3,0,6,2.7,6,6c0,3.3-2.7,6-6,6C96.7,50,94,47.4,94,44.1z
	 M55.8,98.8c0-15.7,8.2-29.5,20.6-37.4c-8.1,9-13.2,22.4-13.2,37.4v10.6h-7.4V98.8z M47.5,135.9v-15.9c0-3.3,2.7-6,6-6h3.2v27.9
	h-3.2C50.2,141.8,47.5,139.2,47.5,135.9z M152.5,135.9c0,3.3-2.7,6-6,6h-3.2v-27.9h3.2c3.3,0,6,2.7,6,6V135.9z"/>
</svg>
